# xmcd
#
# Track frame offsets:
#	150
#	17342
#	40383
#	53533
#	72504
#	86548
#	101162
#	122585
#	139699
#	159632
#	180583
#	200600
#	220890
#	233119
#	251152
#
# Disc length: 3446 seconds
#
# Revision: 1
# Processed by: cddbd v1.4PL0 Copyright (c) Steve Scherf et al.
# Submitted via: EasyCDDAExtractor 6.0.0.1
#
DISCID=d00d740f
DTITLE=John Denver - The Collection
DYEAR=1900
DGENRE=
TTITLE0=Calypso
TTITLE1=Sunshineon my shoulders
TTITLE2=The flower that shattered the stone
TTITLE3=Rocky mountain high
TTITLE4=Annie's song
TTITLE5=Take me home, country road
TTITLE6=The gift you are
TTITLE7=A countrygirl in paris
TTITLE8=Chained to the weel
TTITLE9=Sing australia
TTITLE10=Ponies
TTITLE11=All this joy
TTITLE12=Alaska and me
TTITLE13=Bread and roses
TTITLE14=Deal with the ladies
EXTD=
EXTT0=
EXTT1=
EXTT2=
EXTT3=
EXTT4=
EXTT5=
EXTT6=
EXTT7=
EXTT8=
EXTT9=
EXTT10=
EXTT11=
EXTT12=
EXTT13=
EXTT14=
PLAYORDER=
